<?xml version="1.0" encoding="UTF-8" standalone="no"?>
<!-- Generator: Adobe Illustrator 16.0.0, SVG Export Plug-In . SVG Version: 6.00 Build 0)  -->

<svg
   xmlns:dc="http://purl.org/dc/elements/1.1/"
   xmlns:cc="http://creativecommons.org/ns#"
   xmlns:rdf="http://www.w3.org/1999/02/22-rdf-syntax-ns#"
   xmlns:svg="http://www.w3.org/2000/svg"
   xmlns="http://www.w3.org/2000/svg"
   xmlns:sodipodi="http://sodipodi.sourceforge.net/DTD/sodipodi-0.dtd"
   xmlns:inkscape="http://www.inkscape.org/namespaces/inkscape"
   version="1.1"
   id="Capa_1"
   x="0px"
   y="0px"
   width="25"
   height="25"
   viewBox="0 0 25 25"
   xml:space="preserve"
   inkscape:version="0.91 r13725"
   sodipodi:docname="controller_unselected.svg"
   inkscape:export-filename="/Users/urs/Desktop/IconsIUAE/controller_unselected.png"
   inkscape:export-xdpi="90"
   inkscape:export-ydpi="90"><metadata
     id="metadata42"><rdf:RDF><cc:Work
         rdf:about=""><dc:format>image/svg+xml</dc:format><dc:type
           rdf:resource="http://purl.org/dc/dcmitype/StillImage" /><dc:title /></cc:Work></rdf:RDF></metadata><defs
     id="defs40" /><sodipodi:namedview
     pagecolor="#ffffff"
     bordercolor="#666666"
     borderopacity="1"
     objecttolerance="10"
     gridtolerance="10"
     guidetolerance="10"
     inkscape:pageopacity="0"
     inkscape:pageshadow="2"
     inkscape:window-width="1920"
     inkscape:window-height="935"
     id="namedview38"
     showgrid="false"
     inkscape:zoom="16.971483"
     inkscape:cx="1.7839492"
     inkscape:cy="8.0099823"
     inkscape:window-x="44"
     inkscape:window-y="72"
     inkscape:window-maximized="0"
     inkscape:current-layer="Capa_1" /><g
     id="g3"
     transform="matrix(0.17086519,0,0,0.17086519,0.45599718,0.47580355)"><g
       id="g5"><path
         id="path3304"
         d="m 55.655,87.944 -40.84,0 c -3.228,0 -5.881,2.206 -5.881,5.434 l 0,40.84 c 0,3.226 2.654,6.282 5.881,6.282 l 110.873,0 c 3.221,0 5.878,-3.057 5.878,-6.282 l 0,-40.84 c 0,-3.228 -2.657,-5.434 -5.878,-5.434 l -40.847,0 c -3.223,0 -5.833,-3.024 -5.833,-6.245 l 0,-24.862 c 0,-3.223 2.515,-6.66 5.24,-8.383 C 91.613,43.808 96.511,35.616 96.511,26.261 96.511,11.759 84.757,0 70.251,0 55.748,0 43.987,11.759 43.987,26.262 c 0,9.355 4.899,17.546 12.263,22.193 2.728,1.719 5.24,5.157 5.24,8.383 l 0,24.862 c 0,3.22 -2.608,6.244 -5.835,6.244"
         style="fill:none;fill-opacity:1;stroke:#909095;stroke-width:5.62536335;stroke-miterlimit:4;stroke-dasharray:none;stroke-opacity:1"
         inkscape:connector-curvature="0"
         sodipodi:nodetypes="cssssssssssscssscssc" /><path
         inkscape:connector-curvature="0"
         style="fill:#909095;fill-opacity:1;stroke:none;stroke-width:5.62536335;stroke-miterlimit:4;stroke-dasharray:none;stroke-opacity:1"
         d="m 35.234,122.551 c -4.834,0 -8.751,-3.919 -8.751,-8.755 0,-4.834 3.917,-8.755 8.751,-8.755 4.832,0 8.752,3.921 8.752,8.755 0.001,4.836 -3.92,8.755 -8.752,8.755 z"
         id="path4282"
         sodipodi:nodetypes="ssscs" /></g></g><g
     id="g8"
     transform="translate(0,-115.5)" /><g
     id="g10"
     transform="translate(0,-115.5)" /><g
     id="g12"
     transform="translate(0,-115.5)" /><g
     id="g14"
     transform="translate(0,-115.5)" /><g
     id="g16"
     transform="translate(0,-115.5)" /><g
     id="g18"
     transform="translate(0,-115.5)" /><g
     id="g20"
     transform="translate(0,-115.5)" /><g
     id="g22"
     transform="translate(0,-115.5)" /><g
     id="g24"
     transform="translate(0,-115.5)" /><g
     id="g26"
     transform="translate(0,-115.5)" /><g
     id="g28"
     transform="translate(0,-115.5)" /><g
     id="g30"
     transform="translate(0,-115.5)" /><g
     id="g32"
     transform="translate(0,-115.5)" /><g
     id="g34"
     transform="translate(0,-115.5)" /><g
     id="g36"
     transform="translate(0,-115.5)" /></svg>