<?xml version="1.0" encoding="UTF-8" standalone="no"?>
<!-- Generator: Adobe Illustrator 16.0.0, SVG Export Plug-In . SVG Version: 6.00 Build 0)  -->

<svg
   xmlns:dc="http://purl.org/dc/elements/1.1/"
   xmlns:cc="http://creativecommons.org/ns#"
   xmlns:rdf="http://www.w3.org/1999/02/22-rdf-syntax-ns#"
   xmlns:svg="http://www.w3.org/2000/svg"
   xmlns="http://www.w3.org/2000/svg"
   xmlns:sodipodi="http://sodipodi.sourceforge.net/DTD/sodipodi-0.dtd"
   xmlns:inkscape="http://www.inkscape.org/namespaces/inkscape"
   version="1.1"
   id="Capa_1"
   x="0px"
   y="0px"
   width="25"
   height="25"
   viewBox="0 0 25 25"
   xml:space="preserve"
   inkscape:version="0.91 r13725"
   sodipodi:docname="controller_selected.svg"
   inkscape:export-filename="/Users/urs/Desktop/IconsIUAE/controller_selected.png"
   inkscape:export-xdpi="90"
   inkscape:export-ydpi="90"><metadata
     id="metadata42"><rdf:RDF><cc:Work
         rdf:about=""><dc:format>image/svg+xml</dc:format><dc:type
           rdf:resource="http://purl.org/dc/dcmitype/StillImage" /><dc:title /></cc:Work></rdf:RDF></metadata><defs
     id="defs40" /><sodipodi:namedview
     pagecolor="#ffffff"
     bordercolor="#666666"
     borderopacity="1"
     objecttolerance="10"
     gridtolerance="10"
     guidetolerance="10"
     inkscape:pageopacity="0"
     inkscape:pageshadow="2"
     inkscape:window-width="1920"
     inkscape:window-height="935"
     id="namedview38"
     showgrid="false"
     inkscape:zoom="16.971483"
     inkscape:cx="-19.104031"
     inkscape:cy="8.0099823"
     inkscape:window-x="7"
     inkscape:window-y="0"
     inkscape:window-maximized="0"
     inkscape:current-layer="Capa_1" /><g
     id="g3"
     transform="matrix(0.17086519,0,0,0.17086519,0.45599718,0.47580355)"><g
       id="g5"><path
         style="fill:#057bff;fill-opacity:1;stroke:none;stroke-width:0.96117878;stroke-miterlimit:4;stroke-dasharray:none;stroke-opacity:1"
         d="M 12.458984 0.4765625 C 9.9809265 0.4765625 7.9726563 2.4848328 7.9726562 4.9628906 C 7.9726562 6.5613345 8.808155 7.9618488 10.066406 8.7558594 C 10.532526 9.0495766 10.962891 9.6362889 10.962891 10.1875 L 10.962891 14.435547 C 10.962891 14.985733 10.516226 15.501953 9.9648438 15.501953 L 2.9882812 15.501953 C 2.4367284 15.501953 1.9824219 15.880088 1.9824219 16.431641 L 1.9824219 23.408203 C 1.9824219 23.959414 2.4368993 24.482422 2.9882812 24.482422 L 21.931641 24.482422 C 22.481997 24.482422 22.935547 23.959243 22.935547 23.408203 L 22.935547 16.431641 C 22.935547 15.880088 22.481997 15.501953 21.931641 15.501953 L 14.953125 15.501953 C 14.402426 15.501953 13.955078 14.985904 13.955078 14.435547 L 13.955078 10.1875 C 13.955078 9.6368015 14.385955 9.0502601 14.851562 8.7558594 C 16.109985 7.9620197 16.947266 6.5613345 16.947266 4.9628906 C 16.947266 2.4850036 14.937555 0.4765625 12.458984 0.4765625 z M 6.4765625 18.423828 C 7.3021831 18.423828 7.9707031 19.09396 7.9707031 19.919922 C 7.970874 20.746226 7.3021831 21.416016 6.4765625 21.416016 C 5.6506002 21.416016 4.9804687 20.746226 4.9804688 19.919922 C 4.9804688 19.09396 5.6506002 18.423828 6.4765625 18.423828 z "
         transform="matrix(5.8525672,0,0,5.8525672,-2.6687541,-2.7846722)"
         id="path3304" /><path
         style="fill:#057bff;fill-opacity:1;stroke:#057bff;stroke-width:0.96117878;stroke-miterlimit:4;stroke-dasharray:none;stroke-opacity:1"
         d="M 12.458984 0.4765625 C 9.9809269 0.4765625 7.9726564 2.4848328 7.9726562 4.9628906 C 7.9726562 6.5613345 8.8081552 7.9618488 10.066406 8.7558594 C 10.532526 9.0495766 10.962891 9.6362889 10.962891 10.1875 L 10.962891 14.435547 C 10.962891 14.985733 10.516226 15.501953 9.9648438 15.501953 L 2.9882812 15.501953 C 2.4367284 15.501953 1.9824219 15.880088 1.9824219 16.431641 L 1.9824219 23.408203 C 1.9824219 23.959414 2.4368993 24.482422 2.9882812 24.482422 L 21.931641 24.482422 C 22.481997 24.482422 22.935547 23.959243 22.935547 23.408203 L 22.935547 16.431641 C 22.935547 15.880088 22.481997 15.501953 21.931641 15.501953 L 14.953125 15.501953 C 14.402426 15.501953 13.955078 14.985904 13.955078 14.435547 L 13.955078 10.1875 C 13.955078 9.6368015 14.385955 9.0502601 14.851562 8.7558594 C 16.109986 7.9620197 16.947266 6.5613345 16.947266 4.9628906 C 16.947266 2.4850036 14.937555 0.4765625 12.458984 0.4765625 z M 4.0058594 16.810547 L 9.8398438 16.810547 L 9.8398438 22.466797 L 4.0058594 22.466797 L 4.0058594 16.810547 z "
         transform="matrix(5.8525672,0,0,5.8525672,-2.6687541,-2.7846722)"
         id="path4167" /></g></g><g
     id="g8"
     transform="translate(0,-115.5)" /><g
     id="g10"
     transform="translate(0,-115.5)" /><g
     id="g12"
     transform="translate(0,-115.5)" /><g
     id="g14"
     transform="translate(0,-115.5)" /><g
     id="g16"
     transform="translate(0,-115.5)" /><g
     id="g18"
     transform="translate(0,-115.5)" /><g
     id="g20"
     transform="translate(0,-115.5)" /><g
     id="g22"
     transform="translate(0,-115.5)" /><g
     id="g24"
     transform="translate(0,-115.5)" /><g
     id="g26"
     transform="translate(0,-115.5)" /><g
     id="g28"
     transform="translate(0,-115.5)" /><g
     id="g30"
     transform="translate(0,-115.5)" /><g
     id="g32"
     transform="translate(0,-115.5)" /><g
     id="g34"
     transform="translate(0,-115.5)" /><g
     id="g36"
     transform="translate(0,-115.5)" /></svg>