<?xml version="1.0" encoding="UTF-8" standalone="no"?>
<!-- Generator: Adobe Illustrator 18.1.1, SVG Export Plug-In . SVG Version: 6.00 Build 0)  -->

<svg
   xmlns:dc="http://purl.org/dc/elements/1.1/"
   xmlns:cc="http://creativecommons.org/ns#"
   xmlns:rdf="http://www.w3.org/1999/02/22-rdf-syntax-ns#"
   xmlns:svg="http://www.w3.org/2000/svg"
   xmlns="http://www.w3.org/2000/svg"
   xmlns:sodipodi="http://sodipodi.sourceforge.net/DTD/sodipodi-0.dtd"
   xmlns:inkscape="http://www.inkscape.org/namespaces/inkscape"
   version="1.1"
   id="Capa_1"
   x="0px"
   y="0px"
   viewBox="0 0 24.999999 24.999999"
   xml:space="preserve"
   inkscape:version="0.91 r13725"
   sodipodi:docname="gear_selected.svg"
   width="25"
   height="25"
   inkscape:export-filename="/Users/urs/Desktop/IconsIUAE/gear_selected.png"
   inkscape:export-xdpi="90"
   inkscape:export-ydpi="90"><metadata
     id="metadata42"><rdf:RDF><cc:Work
         rdf:about=""><dc:format>image/svg+xml</dc:format><dc:type
           rdf:resource="http://purl.org/dc/dcmitype/StillImage" /><dc:title /></cc:Work></rdf:RDF></metadata><defs
     id="defs40" /><sodipodi:namedview
     pagecolor="#ffffff"
     bordercolor="#666666"
     borderopacity="1"
     objecttolerance="10"
     gridtolerance="10"
     guidetolerance="10"
     inkscape:pageopacity="0"
     inkscape:pageshadow="2"
     inkscape:window-width="1397"
     inkscape:window-height="871"
     id="namedview38"
     showgrid="false"
     inkscape:zoom="22.021532"
     inkscape:cx="2.3171097"
     inkscape:cy="11.504106"
     inkscape:window-x="193"
     inkscape:window-y="24"
     inkscape:window-maximized="0"
     inkscape:current-layer="Capa_1" /><g
     id="Settings"
     transform="matrix(1.06314,0,0,1.06314,1.0325284,-261.76752)"
     style="stroke-width:0.89808792;stroke-miterlimit:4;stroke-dasharray:none"><g
       id="g4"
       style="stroke-width:0.89808792;stroke-miterlimit:4;stroke-dasharray:none"><path
         style="clip-rule:evenodd;fill:#057bff;fill-rule:evenodd;stroke:#057bff;stroke-width:0.94060981;stroke-miterlimit:4;stroke-dasharray:none;stroke-opacity:1;fill-opacity:1"
         d="m 22.027364,256.694 c -0.03566,-0.31704 -0.405316,-0.55528 -0.724954,-0.55528 -1.033429,0 -1.950467,-0.6068 -2.335055,-1.54523 -0.392897,-0.96118 -0.139553,-2.08213 0.630631,-2.78863 0.242434,-0.22162 0.271889,-0.59261 0.06856,-0.85032 -0.528924,-0.67167 -1.130101,-1.27838 -1.786494,-1.8042 -0.257036,-0.20627 -0.634156,-0.17757 -0.857038,0.0692 -0.67217,0.74442 -1.879558,1.02109 -2.81254,0.63181 -0.970911,-0.40842 -1.583165,-1.39226 -1.523249,-2.44835 0.01972,-0.33172 -0.222714,-0.62014 -0.553428,-0.65866 -0.842352,-0.0974 -1.692089,-0.10044 -2.5369585,-0.007 -0.326938,0.0361 -0.5693723,0.31771 -0.5583792,0.64523 0.036755,1.04569 -0.5828829,2.01232 -1.5441444,2.40605 -0.9218209,0.37654 -2.1207335,0.10221 -2.7915607,-0.63558 -0.2217069,-0.24302 -0.592701,-0.2729 -0.8509955,-0.0716 -0.6758621,0.53027 -1.2905492,1.13749 -1.824341,1.80361 -0.2081964,0.25897 -0.177567,0.63433 0.067301,0.85712 0.7848694,0.71078 1.0382967,1.84146 0.6305473,2.81372 -0.3892879,0.92694 -1.3518082,1.52434 -2.45371351,1.52434 -0.35756748,-0.0115 -0.61225354,0.2285 -0.65135855,0.5536 -0.0991891,0.84721 -0.10036393,1.71046 -0.004867,2.56456 0.0354127,0.31838 0.41630892,0.55452 0.7394707,0.55452 0.98198896,-0.0251 1.92478896,0.58288 2.32028656,1.54532 0.3942389,0.96118 0.1408116,2.08146 -0.6305473,2.78854 -0.2412594,0.22162 -0.2718889,0.59203 -0.06856,0.84974 0.5239735,0.66738 1.1252341,1.27469 1.7839772,1.80487 0.2583784,0.2082 0.6343236,0.17883 0.8582963,-0.068 0.6746873,-0.74627 1.8819915,-1.02244 2.811281,-0.6324 0.9733455,0.40717 1.585599,1.39092 1.5256828,2.44759 -0.019552,0.33189 0.2240566,0.62081 0.5534282,0.65874 0.4309103,0.0503 0.8644226,0.0754 1.2991086,0.0754 0.412617,0 0.825317,-0.0227 1.237934,-0.0686 0.327022,-0.0361 0.569288,-0.31771 0.558295,-0.64582 -0.03785,-1.04509 0.582883,-2.01172 1.542886,-2.40479 0.928031,-0.37905 2.121908,-0.10162 2.792819,0.63542 0.222966,0.24251 0.591359,0.2718 0.85108,0.0712 0.674603,-0.52901 1.288031,-1.13573 1.824341,-1.8037 0.208112,-0.25838 0.178741,-0.63432 -0.06738,-0.85704 -0.78487,-0.71077 -1.039556,-1.84163 -0.631806,-2.81321 0.38333,-0.9146 1.310102,-1.5287 2.306944,-1.5287 l 0.139469,0.004 c 0.323329,0.0263 0.620813,-0.2228 0.660002,-0.55284 0.09936,-0.84798 0.100531,-1.71047 0.005,-2.56457 z m -11.188145,5.0375 c -2.0742441,0 -3.7614658,-1.68723 -3.7614658,-3.76147 0,-2.07416 1.6872217,-3.76147 3.7614658,-3.76147 2.07416,0 3.761381,1.68731 3.761381,3.76147 0,2.07424 -1.687221,3.76147 -3.761381,3.76147 z"
         id="path6"
         inkscape:connector-curvature="0" /></g></g><g
     id="g8"
     transform="translate(0,-243.76501)" /><g
     id="g10"
     transform="translate(0,-243.76501)" /><g
     id="g12"
     transform="translate(0,-243.76501)" /><g
     id="g14"
     transform="translate(0,-243.76501)" /><g
     id="g16"
     transform="translate(0,-243.76501)" /><g
     id="g18"
     transform="translate(0,-243.76501)" /><g
     id="g20"
     transform="translate(0,-243.76501)" /><g
     id="g22"
     transform="translate(0,-243.76501)" /><g
     id="g24"
     transform="translate(0,-243.76501)" /><g
     id="g26"
     transform="translate(0,-243.76501)" /><g
     id="g28"
     transform="translate(0,-243.76501)" /><g
     id="g30"
     transform="translate(0,-243.76501)" /><g
     id="g32"
     transform="translate(0,-243.76501)" /><g
     id="g34"
     transform="translate(0,-243.76501)" /><g
     id="g36"
     transform="translate(0,-243.76501)" /></svg>