<?xml version="1.0" encoding="UTF-8" standalone="no"?>
<!-- Generator: Adobe Illustrator 16.0.0, SVG Export Plug-In . SVG Version: 6.00 Build 0)  -->

<svg
   xmlns:dc="http://purl.org/dc/elements/1.1/"
   xmlns:cc="http://creativecommons.org/ns#"
   xmlns:rdf="http://www.w3.org/1999/02/22-rdf-syntax-ns#"
   xmlns:svg="http://www.w3.org/2000/svg"
   xmlns="http://www.w3.org/2000/svg"
   xmlns:sodipodi="http://sodipodi.sourceforge.net/DTD/sodipodi-0.dtd"
   xmlns:inkscape="http://www.inkscape.org/namespaces/inkscape"
   version="1.1"
   id="Capa_1"
   x="0px"
   y="0px"
   width="25"
   height="25"
   viewBox="0 0 25 25"
   xml:space="preserve"
   inkscape:version="0.91 r13725"
   sodipodi:docname="keyboard_unselected.svg"><metadata
     id="metadata42"><rdf:RDF><cc:Work
         rdf:about=""><dc:format>image/svg+xml</dc:format><dc:type
           rdf:resource="http://purl.org/dc/dcmitype/StillImage" /><dc:title></dc:title></cc:Work></rdf:RDF></metadata><defs
     id="defs40" /><sodipodi:namedview
     pagecolor="#ffffff"
     bordercolor="#666666"
     borderopacity="1"
     objecttolerance="10"
     gridtolerance="10"
     guidetolerance="10"
     inkscape:pageopacity="0"
     inkscape:pageshadow="2"
     inkscape:window-width="1920"
     inkscape:window-height="935"
     id="namedview38"
     showgrid="false"
     inkscape:zoom="30.786722"
     inkscape:cx="17.181133"
     inkscape:cy="13.598545"
     inkscape:window-x="51"
     inkscape:window-y="51"
     inkscape:window-maximized="0"
     inkscape:current-layer="Capa_1" /><g
     id="g3"
     transform="matrix(0.96303828,0,0,0.94496137,0.77736013,-458.73195)"><g
       id="keyboard-hide"><path
         d="m 22.11422,485.94813 -19.9354504,0 c -1.37056217,0 -2.49193122,1.12137 -2.49193122,2.49194 l 0,12.45965 c 0,1.37056 1.12136905,2.49193 2.49193122,2.49193 l 19.9354504,0 c 1.370562,0 2.491931,-1.12137 2.491931,-2.49193 l 0,-12.45965 c 0,-1.37057 -1.121369,-2.49194 -2.491931,-2.49194 z m -9.967725,24.91932 4.983862,-4.98387 -9.9677249,0 z"
         id="path6"
         style="fill:none;stroke:#909095;stroke-width:1;stroke-miterlimit:4;stroke-dasharray:none;stroke-opacity:1;fill-opacity:1"
         inkscape:connector-curvature="0"
         sodipodi:nodetypes="ssssssssscccc" /></g></g><g
     id="g8"
     transform="translate(0,-485)" /><g
     id="g10"
     transform="translate(0,-485)" /><g
     id="g12"
     transform="translate(0,-485)" /><g
     id="g14"
     transform="translate(0,-485)" /><g
     id="g16"
     transform="translate(0,-485)" /><g
     id="g18"
     transform="translate(0,-485)" /><g
     id="g20"
     transform="translate(0,-485)" /><g
     id="g22"
     transform="translate(0,-485)" /><g
     id="g24"
     transform="translate(0,-485)" /><g
     id="g26"
     transform="translate(0,-485)" /><g
     id="g28"
     transform="translate(0,-485)" /><g
     id="g30"
     transform="translate(0,-485)" /><g
     id="g32"
     transform="translate(0,-485)" /><g
     id="g34"
     transform="translate(0,-485)" /><g
     id="g36"
     transform="translate(0,-485)" /><path
     d="m 11.270446,4.0069296 2.399825,0 0,2.3547776 -2.399825,0 z m 0,3.5321711 2.399825,0 0,2.3547776 -2.399825,0 z m -3.5997376,-3.5321711 2.3998256,0 0,2.3547776 -2.3998256,0 z m 0,3.5321711 2.3998256,0 0,2.3547776 -2.3998256,0 z m -1.1999126,2.3547776 -2.3998252,0 0,-2.3547776 2.3998252,0 z m 0,-3.5321711 -2.3998252,0 0,-2.3547776 2.3998252,0 z m 10.7992132,8.2417268 -9.5993006,0 0,-2.354778 9.5993006,0 z m 0,-4.7095557 -2.399825,0 0,-2.3547776 2.399825,0 z m 0,-3.5321711 -2.399825,0 0,-2.3547776 2.399825,0 z m 3.599738,3.5321711 -2.399825,0 0,-2.3547776 2.399825,0 z m 0,-3.5321711 -2.399825,0 0,-2.3547776 2.399825,0 z"
     id="path6-9"
     style="fill:#909095;stroke:none;stroke-width:0.95395702;stroke-miterlimit:4;stroke-dasharray:none;stroke-opacity:1;fill-opacity:1"
     inkscape:connector-curvature="0"
     sodipodi:nodetypes="ccccccccccccccccccccccccccccccccccccccccccccccccccccccc" /></svg>