<?xml version="1.0" encoding="UTF-8" standalone="no"?>
<!-- Generator: Adobe Illustrator 16.0.0, SVG Export Plug-In . SVG Version: 6.00 Build 0)  -->

<svg
   xmlns:dc="http://purl.org/dc/elements/1.1/"
   xmlns:cc="http://creativecommons.org/ns#"
   xmlns:rdf="http://www.w3.org/1999/02/22-rdf-syntax-ns#"
   xmlns:svg="http://www.w3.org/2000/svg"
   xmlns="http://www.w3.org/2000/svg"
   xmlns:sodipodi="http://sodipodi.sourceforge.net/DTD/sodipodi-0.dtd"
   xmlns:inkscape="http://www.inkscape.org/namespaces/inkscape"
   version="1.1"
   id="Capa_1"
   x="0px"
   y="0px"
   width="25"
   height="25"
   viewBox="0 0 25 25"
   xml:space="preserve"
   inkscape:version="0.91 r13725"
   sodipodi:docname="keyboard_selected.svg"><metadata
     id="metadata42"><rdf:RDF><cc:Work
         rdf:about=""><dc:format>image/svg+xml</dc:format><dc:type
           rdf:resource="http://purl.org/dc/dcmitype/StillImage" /><dc:title></dc:title></cc:Work></rdf:RDF></metadata><defs
     id="defs40" /><sodipodi:namedview
     pagecolor="#ffffff"
     bordercolor="#666666"
     borderopacity="1"
     objecttolerance="10"
     gridtolerance="10"
     guidetolerance="10"
     inkscape:pageopacity="0"
     inkscape:pageshadow="2"
     inkscape:window-width="1920"
     inkscape:window-height="935"
     id="namedview38"
     showgrid="false"
     inkscape:zoom="30.786722"
     inkscape:cx="17.181133"
     inkscape:cy="13.598545"
     inkscape:window-x="51"
     inkscape:window-y="51"
     inkscape:window-maximized="0"
     inkscape:current-layer="Capa_1" /><g
     id="g3"
     transform="matrix(0.96303828,0,0,0.94496137,0.77736013,-458.73195)"
     style="fill:#057bff;fill-opacity:1"><g
       id="keyboard-hide"
       style="fill:#057bff;fill-opacity:1"><path
         style="fill:#057bff;fill-opacity:1;stroke:none;stroke-width:0.95395702;stroke-miterlimit:4;stroke-dasharray:none;stroke-opacity:1"
         d="M 2.875 0.47070312 C 1.5550962 0.47070312 0.4765625 1.529083 0.4765625 2.8242188 L 0.4765625 14.599609 C 0.4765625 15.894736 1.5550962 16.953125 2.875 16.953125 L 22.074219 16.953125 C 23.394122 16.953125 24.474609 15.894736 24.474609 14.599609 L 24.474609 2.8242188 C 24.474609 1.529083 23.394122 0.47070312 22.074219 0.47070312 L 2.875 0.47070312 z M 4.0703125 4.0078125 L 6.4707031 4.0078125 L 6.4707031 6.3613281 L 4.0703125 6.3613281 L 4.0703125 4.0078125 z M 7.6699219 4.0078125 L 10.070312 4.0078125 L 10.070312 6.3613281 L 7.6699219 6.3613281 L 7.6699219 4.0078125 z M 11.269531 4.0078125 L 13.669922 4.0078125 L 13.669922 6.3613281 L 11.269531 6.3613281 L 11.269531 4.0078125 z M 14.871094 4.0078125 L 17.269531 4.0078125 L 17.269531 6.3613281 L 14.871094 6.3613281 L 14.871094 4.0078125 z M 18.470703 4.0078125 L 20.869141 4.0078125 L 20.869141 6.3613281 L 18.470703 6.3613281 L 18.470703 4.0078125 z M 4.0703125 7.5390625 L 6.4707031 7.5390625 L 6.4707031 9.8945312 L 4.0703125 9.8945312 L 4.0703125 7.5390625 z M 7.6699219 7.5390625 L 10.070312 7.5390625 L 10.070312 9.8945312 L 7.6699219 9.8945312 L 7.6699219 7.5390625 z M 11.269531 7.5390625 L 13.669922 7.5390625 L 13.669922 9.8945312 L 11.269531 9.8945312 L 11.269531 7.5390625 z M 14.871094 7.5390625 L 17.269531 7.5390625 L 17.269531 9.8945312 L 14.871094 9.8945312 L 14.871094 7.5390625 z M 18.470703 7.5390625 L 20.869141 7.5390625 L 20.869141 9.8945312 L 18.470703 9.8945312 L 18.470703 7.5390625 z M 7.6699219 12.248047 L 17.269531 12.248047 L 17.269531 14.603516 L 7.6699219 14.603516 L 7.6699219 12.248047 z M 7.6757812 19.308594 L 12.474609 24.017578 L 17.275391 19.308594 L 7.6757812 19.308594 z "
         transform="matrix(1.0383803,0,0,1.0582443,-0.80719546,485.45048)"
         id="path6" /></g></g><g
     id="g8"
     transform="translate(0,-485)" /><g
     id="g10"
     transform="translate(0,-485)" /><g
     id="g12"
     transform="translate(0,-485)" /><g
     id="g14"
     transform="translate(0,-485)" /><g
     id="g16"
     transform="translate(0,-485)" /><g
     id="g18"
     transform="translate(0,-485)" /><g
     id="g20"
     transform="translate(0,-485)" /><g
     id="g22"
     transform="translate(0,-485)" /><g
     id="g24"
     transform="translate(0,-485)" /><g
     id="g26"
     transform="translate(0,-485)" /><g
     id="g28"
     transform="translate(0,-485)" /><g
     id="g30"
     transform="translate(0,-485)" /><g
     id="g32"
     transform="translate(0,-485)" /><g
     id="g34"
     transform="translate(0,-485)" /><g
     id="g36"
     transform="translate(0,-485)" /><path
     style="fill:#057bff;fill-opacity:1;stroke:#057bff;stroke-width:0.95395702;stroke-miterlimit:4;stroke-dasharray:none;stroke-opacity:1"
     d="M 2.875 0.47070312 C 1.5550962 0.47070312 0.4765625 1.529083 0.4765625 2.8242188 L 0.4765625 14.599609 C 0.4765625 15.894736 1.5550962 16.953125 2.875 16.953125 L 22.074219 16.953125 C 23.394122 16.953125 24.474609 15.894736 24.474609 14.599609 L 24.474609 2.8242188 C 24.474609 1.529083 23.394122 0.47070312 22.074219 0.47070312 L 2.875 0.47070312 z M 2.4355469 2.1972656 L 22.964844 2.1972656 L 22.964844 15.515625 L 2.4355469 15.515625 L 2.4355469 2.1972656 z M 7.6757812 19.308594 L 12.474609 24.017578 L 17.275391 19.308594 L 7.6757812 19.308594 z "
     id="path6-1" /></svg>