<?xml version="1.0" encoding="UTF-8" standalone="no"?>
<svg
   xmlns:dc="http://purl.org/dc/elements/1.1/"
   xmlns:cc="http://creativecommons.org/ns#"
   xmlns:rdf="http://www.w3.org/1999/02/22-rdf-syntax-ns#"
   xmlns:svg="http://www.w3.org/2000/svg"
   xmlns="http://www.w3.org/2000/svg"
   xmlns:sodipodi="http://sodipodi.sourceforge.net/DTD/sodipodi-0.dtd"
   xmlns:inkscape="http://www.inkscape.org/namespaces/inkscape"
   height="25"
   id="Layer_1"
   version="1.1"
   viewBox="0 0 25 25"
   width="25"
   xml:space="preserve"
   inkscape:version="0.91 r13725"
   sodipodi:docname="monitor_selected.svg"><metadata
     id="metadata13"><rdf:RDF><cc:Work
         rdf:about=""><dc:format>image/svg+xml</dc:format><dc:type
           rdf:resource="http://purl.org/dc/dcmitype/StillImage" /><dc:title></dc:title></cc:Work></rdf:RDF></metadata><defs
     id="defs11" /><sodipodi:namedview
     pagecolor="#ffffff"
     bordercolor="#666666"
     borderopacity="1"
     objecttolerance="10"
     gridtolerance="10"
     guidetolerance="10"
     inkscape:pageopacity="0"
     inkscape:pageshadow="2"
     inkscape:window-width="1920"
     inkscape:window-height="935"
     id="namedview9"
     showgrid="false"
     inkscape:zoom="25.125946"
     inkscape:cx="18.755885"
     inkscape:cy="16.584436"
     inkscape:window-x="0"
     inkscape:window-y="1"
     inkscape:window-maximized="1"
     inkscape:current-layer="Layer_1" /><g
     id="g3"
     transform="matrix(0.05545975,0,0,0.05545975,-1.7199399,-1.5560009)"><path
       d="m 460.83009,75.327181 -409.171199,0 c -5.771103,0 -10.868911,4.809252 -10.868911,10.67654 l 0,255.563679 c 0,5.96347 5.001623,10.67654 10.868911,10.67654 l 409.171199,0 c 5.77111,0 10.86891,-4.80926 10.86891,-10.67654 l 0,-255.563679 c 0,-5.867288 -5.00162,-10.67654 -10.86891,-10.67654 z m -19.9103,246.233719 -369.350594,0 0,-215.4545 369.350594,0 0,215.4545 z"
       id="path5"
       style="fill:#057bff;stroke:#057bff;stroke-width:17.34321785;stroke-miterlimit:4;stroke-dasharray:none;stroke-opacity:1;fill-opacity:1"
       inkscape:connector-curvature="0"
       inkscape:export-filename="/Volumes/Multimedia/Downloads/monitor_selected.png"
       inkscape:export-xdpi="90"
       inkscape:export-ydpi="90" /><path
       d="m 302.5,448 c 28,-0.5 41.5,-3.9 29,-12.5 -12.5,-8.7 -28.5,-15.3 -29,-22.5 -0.3,-3.7 -1.7,-45 -1.7,-45 l -44.8,0 -44.8,0 c 0,0 -1.5,41.3 -1.7,45 -0.5,7.1 -16.5,13.8 -29,22.5 -12.5,8.7 1,12 29,12.5 l 93,0 z"
       id="path7"
       style="fill:#057bff;stroke:#057bff;stroke-opacity:1;stroke-width:18.03109462;stroke-miterlimit:4;stroke-dasharray:none;fill-opacity:1"
       inkscape:connector-curvature="0"
       inkscape:export-filename="/Volumes/Multimedia/Downloads/monitor_selected.png"
       inkscape:export-xdpi="90"
       inkscape:export-ydpi="90" /></g></svg>