<?xml version="1.0" encoding="UTF-8" standalone="no"?>
<!-- Generator: Adobe Illustrator 17.1.0, SVG Export Plug-In . SVG Version: 6.00 Build 0)  -->

<svg
   xmlns:dc="http://purl.org/dc/elements/1.1/"
   xmlns:cc="http://creativecommons.org/ns#"
   xmlns:rdf="http://www.w3.org/1999/02/22-rdf-syntax-ns#"
   xmlns:svg="http://www.w3.org/2000/svg"
   xmlns="http://www.w3.org/2000/svg"
   xmlns:sodipodi="http://sodipodi.sourceforge.net/DTD/sodipodi-0.dtd"
   xmlns:inkscape="http://www.inkscape.org/namespaces/inkscape"
   version="1.1"
   id="Capa_1"
   x="0px"
   y="0px"
   viewBox="0 0 25 25"
   xml:space="preserve"
   inkscape:version="0.91 r13725"
   sodipodi:docname="sticky_selected.svg"
   width="25"
   height="25"><metadata
     id="metadata39"><rdf:RDF><cc:Work
         rdf:about=""><dc:format>image/svg+xml</dc:format><dc:type
           rdf:resource="http://purl.org/dc/dcmitype/StillImage" /><dc:title></dc:title></cc:Work></rdf:RDF></metadata><defs
     id="defs37" /><sodipodi:namedview
     pagecolor="#ffffff"
     bordercolor="#666666"
     borderopacity="1"
     objecttolerance="10"
     gridtolerance="10"
     guidetolerance="10"
     inkscape:pageopacity="0"
     inkscape:pageshadow="2"
     inkscape:window-width="1920"
     inkscape:window-height="935"
     id="namedview35"
     showgrid="false"
     inkscape:zoom="16"
     inkscape:cx="12.316413"
     inkscape:cy="15.237156"
     inkscape:window-x="0"
     inkscape:window-y="1"
     inkscape:window-maximized="1"
     inkscape:current-layer="Capa_1" /><g
     id="g5"
     transform="translate(0,-172.85401)" /><g
     id="g7"
     transform="translate(0,-172.85401)" /><g
     id="g9"
     transform="translate(0,-172.85401)" /><g
     id="g11"
     transform="translate(0,-172.85401)" /><g
     id="g13"
     transform="translate(0,-172.85401)" /><g
     id="g15"
     transform="translate(0,-172.85401)" /><g
     id="g17"
     transform="translate(0,-172.85401)" /><g
     id="g19"
     transform="translate(0,-172.85401)" /><g
     id="g21"
     transform="translate(0,-172.85401)" /><g
     id="g23"
     transform="translate(0,-172.85401)" /><g
     id="g25"
     transform="translate(0,-172.85401)" /><g
     id="g27"
     transform="translate(0,-172.85401)" /><g
     id="g29"
     transform="translate(0,-172.85401)" /><g
     id="g31"
     transform="translate(0,-172.85401)" /><g
     id="g33"
     transform="translate(0,-172.85401)" /><path
     style="fill:#057bff;stroke:#057bff;stroke-width:0.9661358;stroke-miterlimit:4;stroke-dasharray:none;stroke-opacity:1;fill-opacity:1"
     d="M 15.551682,0.48322078 C 14.790754,0.58672584 14.300275,1.3996042 14.091346,2.0784938 13.93928,2.6856051 14.043126,3.3535836 14.382157,3.8808245 12.680874,5.2273165 10.979591,6.5738109 9.2783077,7.9203041 8.1283945,6.5248948 5.7827519,6.5307241 4.636897,7.9281841 4.010144,8.3033459 4.0359516,9.2243074 4.660961,9.5886507 6.1226047,11.050222 7.5842485,12.511791 9.0458922,13.973363 6.1722581,16.817232 3.2579724,19.6471 0.85967115,22.917974 0.27512855,23.334339 0.37601168,24.371891 1.1307149,24.508629 1.9592352,24.617475 2.433479,23.685041 3.0902795,23.342689 5.9823756,21.15755 8.4595202,18.49695 11.024569,15.95204 c 1.54474,1.497672 3.007881,3.096824 4.597374,4.538978 0.777317,0.362311 1.341316,-0.502971 1.757196,-1.034125 0.843348,-1.230007 0.577433,-3.029614 -0.55417,-3.989926 1.365239,-1.668809 2.698703,-3.521794 4.083685,-5.076164 1.129371,0.731116 2.859085,0.188855 3.340371,-1.0604128 C 24.34333,8.4425559 23.269513,8.0456953 22.838815,7.4141725 20.528839,5.1467334 18.293702,2.7865263 15.939974,0.57326074 15.820467,0.51245315 15.685829,0.48061897 15.551682,0.48322561 Z"
     id="path3"
     inkscape:connector-curvature="0" /></svg>